<svg xmlns="http://www.w3.org/2000/svg" xmlns:xlink="http://www.w3.org/1999/xlink" width="24px" height="24px" viewBox="0 0 24 24" version="1.1">
    <!-- Generator: Sketch 52.5 (67469) - http://www.bohemiancoding.com/sketch -->
    <title>ic/add_box</title>
    <desc>Created with Sketch.</desc>
    <defs>
        <path d="M2,0 L16,0 C17.1045695,-2.02906125e-16 18,0.8954305 18,2 L18,16 C18,17.1045695 17.1045695,18 16,18 L2,18 C0.8954305,18 1.3527075e-16,17.1045695 0,16 L0,2 C-1.3527075e-16,0.8954305 0.8954305,2.02906125e-16 2,0 Z M14,10 L14,8 L10,8 L10,4 L8,4 L8,8 L4,8 L4,10 L8,10 L8,14 L10,14 L10,10 L14,10 Z" id="path-1"/>
    </defs>
    <g id="ic/add_box" stroke="none" stroke-width="1" fill="none" fill-rule="evenodd">
        <g id="ic_add_box_24px" transform="translate(3.000000, 3.000000)">
            <mask id="mask-2" fill="white">
                <use xlink:href="#path-1"/>
            </mask>
            <use id="Shape" fill="#6F6F6F" fill-rule="nonzero" xlink:href="#path-1"/>
        </g>
    </g>
</svg>
