<svg xmlns="http://www.w3.org/2000/svg" xmlns:xlink="http://www.w3.org/1999/xlink" width="24px" height="24px" viewBox="0 0 24 24" version="1.1">
    <!-- Generator: Sketch 52.5 (67469) - http://www.bohemiancoding.com/sketch -->
    <title>ic/arrow_right_alt copy 2</title>
    <desc>Created with Sketch.</desc>
    <g id="ic/arrow_right_alt-copy-2" stroke="none" stroke-width="1" fill="none" fill-rule="evenodd">
        <path d="M6.79220473,4.00051874 L8.00006292,4.00085664 C10.209038,4.00108837 11.9996433,5.79188149 11.9996433,8.00081727 L11.999958,14.0000174 C11.999958,15.1045869 12.8953885,16.0000174 13.999958,16.0000174 L16.999958,16.0000174 L16.999958,18.0000174 L13.999958,18.0000174 C11.790819,18.0000174 9.99995803,16.2091564 9.99995803,14.0000567 L9.9996433,8.00085662 C9.9996433,6.89636905 9.10434067,6.00097249 7.99979017,6.00085662 L6.79175147,6.00051867 C6.40585479,6.88319403 5.52495877,7.5 4.5,7.5 C3.11928813,7.5 2,6.38071187 2,5 C2,3.61928813 3.11928813,2.5 4.5,2.5 C5.52536027,2.5 6.4065449,3.1172893 6.79220473,4.00051874 Z M17,12 L22,17 L17,22 L17,12 Z" id="Shape" fill="#6F6F6F" fill-rule="nonzero"/>
    </g>
</svg>
