<?xml version="1.0" encoding="UTF-8"?>
<svg width="20px" height="20px" viewBox="0 0 20 20" version="1.1" xmlns="http://www.w3.org/2000/svg" xmlns:xlink="http://www.w3.org/1999/xlink">
    <!-- Generator: Sketch 48.2 (47327) - http://www.bohemiancoding.com/sketch -->
    <title>Shape</title>
    <desc>Created with Sketch.</desc>
    <defs></defs>
    <g id="2.0详情页" stroke="none" stroke-width="1" fill="none" fill-rule="evenodd">
        <g id="Group-Copy" transform="translate(-65.000000, 0.000000)">
            <g id="ic_add_circle_24px" transform="translate(65.000000, 0.000000)">
                <circle id="Oval-13" fill="#F0F2F5" cx="10" cy="10" r="10"></circle>
                <path d="M10,2 C5.584,2 2,5.584 2,10 C2,14.416 5.584,18 10,18 C14.416,18 18,14.416 18,10 C18,5.584 14.416,2 10,2 Z M14,11 L11,11 L11,14 L9,14 L9,11 L6,11 L6,9 L9,9 L9,6 L11,6 L11,9 L14,9 L14,11 Z" id="Shape" fill="#9FA2A8" fill-rule="nonzero"></path>
            </g>
        </g>
    </g>
</svg>